# xmcd CD database file
#
# Track frame offsets:
#	150
#	12055
#	33858
#	47663
#	71567
#	89093
#	115402
#	129477
#
# Disc length: 1909 seconds
#
# Revision: 0
# Processed by: cddbd v1.5.2PL0 Copyright (c) Steve Scherf et al.
# Submitted via: CDex 1.51
#
DISCID=65077308
DTITLE=Angela Fabian - The Nearness Of You
DYEAR=1997
DGENRE=Jazz
TTITLE0=Autumn Leaves
TTITLE1=Cry Me A River
TTITLE2=Work Song
TTITLE3=The Nearness Of You
TTITLE4=Unforgettable
TTITLE5=My Funny Valentine
TTITLE6=Wind
TTITLE7=How High The Moon
EXTD=YEAR: 1997
EXTT0=
EXTT1=
EXTT2=
EXTT3=
EXTT4=
EXTT5=
EXTT6=
EXTT7=
PLAYORDER=
